<svg width="24" height="24" viewBox="0 0 24 24" fill="none" xmlns="http://www.w3.org/2000/svg">
<path d="M12 5.50066L11.4596 6.02076C11.463 6.02424 11.4664 6.02768 11.4698 6.03109L12 5.50066ZM7.00061 16.4209C6.68078 16.1577 6.20813 16.2036 5.94491 16.5234C5.68169 16.8432 5.72758 17.3159 6.04741 17.5791L7.00061 16.4209ZM2.34199 13.4115C2.54074 13.7749 2.99647 13.9084 3.35988 13.7096C3.7233 13.5108 3.85677 13.0551 3.65801 12.6917L2.34199 13.4115ZM13.4698 8.03037C13.7627 8.32321 14.2376 8.32312 14.5304 8.03017C14.8233 7.73723 14.8232 7.26235 14.5302 6.96951L13.4698 8.03037ZM2.75 9.13713C2.75 6.98626 3.96537 5.18255 5.62436 4.42422C7.23607 3.68751 9.40166 3.88261 11.4596 6.02076L12.5404 4.98056C10.0985 2.44355 7.26409 2.02542 5.00076 3.05999C2.78471 4.07295 1.25 6.42506 1.25 9.13713H2.75ZM8.49742 19.4999C9.00965 19.9037 9.55955 20.3343 10.1168 20.6599C10.6739 20.9854 11.3096 21.25 12 21.25V19.75C11.6904 19.75 11.3261 19.6293 10.8736 19.3648C10.4213 19.1005 9.95208 18.7366 9.42605 18.3219L8.49742 19.4999ZM15.5026 19.4999C16.9292 18.3752 18.7528 17.0866 20.1833 15.4758C21.6395 13.8361 22.75 11.8026 22.75 9.13713H21.25C21.25 11.3345 20.3508 13.0282 19.0617 14.4798C17.7469 15.9603 16.0896 17.1271 14.574 18.3219L15.5026 19.4999ZM22.75 9.13713C22.75 6.42506 21.2153 4.07295 18.9992 3.05999C16.7359 2.02542 13.9015 2.44355 11.4596 4.98056L12.5404 6.02076C14.5983 3.88261 16.7639 3.68751 18.3756 4.42422C20.0346 5.18255 21.25 6.98626 21.25 9.13713H22.75ZM14.574 18.3219C14.0479 18.7366 13.5787 19.1005 13.1264 19.3648C12.6739 19.6293 12.3096 19.75 12 19.75V21.25C12.6904 21.25 13.3261 20.9854 13.8832 20.6599C14.4405 20.3343 14.9903 19.9037 15.5026 19.4999L14.574 18.3219ZM9.42605 18.3219C8.63014 17.6945 7.82129 17.0963 7.00061 16.4209L6.04741 17.5791C6.87768 18.2624 7.75472 18.9144 8.49742 19.4999L9.42605 18.3219ZM3.65801 12.6917C3.0968 11.6656 2.75 10.5033 2.75 9.13713H1.25C1.25 10.7746 1.66995 12.1827 2.34199 13.4115L3.65801 12.6917ZM11.4698 6.03109L13.4698 8.03037L14.5302 6.96951L12.5302 4.97024L11.4698 6.03109Z" fill="#506374"/>
</svg>
