<svg width="25" height="25" viewBox="0 0 25 25" fill="none" xmlns="http://www.w3.org/2000/svg">
<path d="M19.1666 0H5.83334C5.14418 0 4.58334 0.56084 4.58334 1.25C4.58334 1.93916 5.14418 2.5 5.83334 2.5H19.1667C19.8559 2.5 20.4167 1.93916 20.4167 1.25C20.4167 0.56084 19.8558 0 19.1666 0ZM19.1666 1.66665H5.83334C5.60375 1.66665 5.41669 1.47998 5.41669 1.25C5.41669 1.02002 5.60375 0.83335 5.83334 0.83335H19.1667C19.3963 0.83335 19.5833 1.02002 19.5833 1.25C19.5833 1.47998 19.3962 1.66665 19.1666 1.66665Z" fill="#5F6F7D"/>
<path d="M19.1666 22.5H5.83334C5.14418 22.5 4.58334 23.0608 4.58334 23.75C4.58334 24.4392 5.14418 25 5.83334 25H19.1667C19.8559 25 20.4167 24.4392 20.4167 23.75C20.4167 23.0608 19.8558 22.5 19.1666 22.5ZM19.1666 24.1667H5.83334C5.60375 24.1667 5.41669 23.98 5.41669 23.75C5.41669 23.52 5.60375 23.3334 5.83334 23.3334H19.1667C19.3963 23.3334 19.5833 23.52 19.5833 23.75C19.5833 23.98 19.3962 24.1667 19.1666 24.1667Z" fill="#5F6F7D"/>
<path d="M15.4692 10.9533C17.585 8.8375 18.75 6.02456 18.75 3.03291V2.08335C18.75 1.85293 18.5633 1.66669 18.3334 1.66669H6.66665C6.43667 1.66669 6.25 1.85293 6.25 2.08335V3.03291C6.25 6.025 7.41499 8.8375 9.53042 10.9533L9.94917 11.3721C10.2462 11.6691 10.4166 12.08 10.4166 12.5C10.4166 12.92 10.2462 13.3309 9.94956 13.6279L9.53081 14.0467C7.41499 16.1625 6.25 18.975 6.25 21.9671V22.9166C6.25 23.1471 6.43667 23.3333 6.66665 23.3333H18.3333C18.5633 23.3333 18.75 23.1471 18.75 22.9166V21.9671C18.75 18.9754 17.585 16.1625 15.4691 14.0467L15.0504 13.6279C14.7491 13.3267 14.5833 12.9263 14.5833 12.5C14.5833 12.0737 14.7491 11.6733 15.0504 11.3721L15.4692 10.9533ZM14.4612 10.7829C14.0025 11.2413 13.75 11.8508 13.75 12.5C13.75 13.1492 14.0025 13.7587 14.4612 14.2171L14.88 14.6358C16.8383 16.5942 17.9167 19.1979 17.9167 21.9671V22.5H7.08335V21.9671C7.08335 19.1975 8.16167 16.5942 10.1196 14.6358L10.5383 14.2171C10.9975 13.7587 11.25 13.1487 11.25 12.5C11.25 11.8513 10.9975 11.2413 10.5388 10.7829L10.12 10.3642C8.16167 8.40581 7.08335 5.80205 7.08335 3.03291V2.5H17.9167V3.03291C17.9167 5.80209 16.8384 8.40581 14.88 10.3642L14.4612 10.7829Z" fill="#5F6F7D"/>
<path d="M16.0212 7.01959C15.9792 6.91377 15.8358 6.66666 15.4167 6.66666C13.2517 6.66666 12.2871 6.20289 11.9045 5.92623C11.4274 5.58082 10.8154 5.49039 10.2658 5.68497C9.74122 5.87037 9.35704 6.28287 9.21246 6.81622C9.17496 6.95499 9.16827 7.04498 9.16827 7.04498C9.16202 7.12706 9.17994 7.21583 9.22037 7.2879C9.6108 7.97999 10.0612 8.70997 10.7095 9.35831L11.1278 9.77706C11.7441 10.3925 12.0833 11.2116 12.0833 12.0833C12.0833 12.3137 12.2699 12.5 12.4999 12.5C12.7299 12.5 12.9166 12.3137 12.9166 12.0833C12.9166 11.2121 13.2557 10.3929 13.8715 9.77706L14.2907 9.35787C14.3937 9.25538 14.5278 9.12872 14.6753 8.99039C15.7525 7.9775 16.2054 7.48458 16.0212 7.01959ZM14.1038 8.38335C13.9496 8.52876 13.8087 8.66128 13.7013 8.76875L13.2821 9.18794C12.9584 9.51128 12.6959 9.87959 12.4996 10.2788C12.3033 9.87959 12.0408 9.51128 11.717 9.18794L11.2987 8.76919C10.787 8.25713 10.4125 7.69336 10.0229 7.01377C10.1258 6.66587 10.3924 6.52418 10.5437 6.47042C10.8345 6.36749 11.1608 6.41626 11.4158 6.60127C11.9466 6.98545 12.9933 7.43834 14.9983 7.49419C14.7408 7.78419 14.3367 8.1646 14.1038 8.38335Z" fill="#5F6F7D"/>
<path d="M17.0546 21.2175C16.95 19.8666 16.4084 19.3058 15.7817 18.6558C15.6971 18.5679 15.6088 18.4767 15.5184 18.38C14.995 17.8208 14.2559 17.5 13.4896 17.5H11.51C10.7442 17.5 10.0046 17.8208 9.48126 18.38C9.39083 18.4767 9.30294 18.5675 9.21832 18.6554C8.59122 19.3054 8.04957 19.8666 7.94542 21.2179C7.93624 21.3337 7.97623 21.4479 8.05499 21.5333C8.13414 21.6184 8.24459 21.6667 8.3608 21.6667H16.6391C16.7549 21.6667 16.8658 21.6184 16.9449 21.533C17.0237 21.4475 17.0633 21.3329 17.0546 21.2175ZM8.83541 20.8333C8.97667 20.1059 9.31334 19.7575 9.81832 19.2342C9.90582 19.1434 9.99664 19.0488 10.09 18.9492C10.4563 18.5575 10.9737 18.3334 11.51 18.3334H13.4896C14.0263 18.3334 14.5438 18.5579 14.91 18.9488C15.0038 19.0496 15.0946 19.1434 15.1825 19.2346C15.6871 19.758 16.0233 20.1063 16.165 20.8333H8.83541Z" fill="#5F6F7D"/>
<path d="M12.4875 13.3334C12.2575 13.3334 12.0709 13.5196 12.0709 13.75V14.1667C12.0709 14.3971 12.2575 14.5833 12.4875 14.5833C12.7175 14.5833 12.9042 14.3971 12.9042 14.1667V13.75C12.9042 13.5196 12.7175 13.3334 12.4875 13.3334Z" fill="#5F6F7D"/>
<path d="M12.4875 15.4166C12.2575 15.4166 12.0709 15.6029 12.0709 15.8333V16.25C12.0709 16.4804 12.2575 16.6666 12.4875 16.6666C12.7175 16.6666 12.9042 16.4804 12.9042 16.25V15.8333C12.9042 15.6029 12.7175 15.4166 12.4875 15.4166Z" fill="#5F6F7D"/>
</svg>
