<svg width="25" height="25" viewBox="0 0 25 25" fill="none" xmlns="http://www.w3.org/2000/svg">
<path d="M12.5 24.5496C12.4606 24.5495 12.4215 24.5426 12.3844 24.529C12.1779 24.454 11.9752 24.3752 11.7763 24.2926C9.28845 23.2778 7.16012 21.5435 5.66397 19.3118C4.16782 17.08 3.37197 14.4524 3.37836 11.7655V4.87973C3.37818 4.83272 3.38781 4.78618 3.40663 4.7431C3.42546 4.70002 3.45307 4.66135 3.4877 4.62955C3.52233 4.59775 3.56321 4.57353 3.60773 4.55844C3.65226 4.54334 3.69944 4.53771 3.74627 4.54189C7.02701 4.83412 9.88782 3.64865 12.2483 1.01351C12.2809 0.979609 12.3199 0.952634 12.3632 0.934206C12.4064 0.915779 12.453 0.906281 12.5 0.906281C12.547 0.906281 12.5935 0.915779 12.6368 0.934206C12.68 0.952634 12.7191 0.979609 12.7517 1.01351C15.1125 3.64865 17.973 4.83513 21.2537 4.54324C21.3005 4.53906 21.3477 4.54469 21.3922 4.55979C21.4368 4.57488 21.4776 4.5991 21.5123 4.6309C21.5469 4.6627 21.5745 4.70137 21.5933 4.74445C21.6122 4.78753 21.6218 4.83407 21.6216 4.88108V11.7655C21.6279 14.4527 20.8318 17.0806 19.3352 19.3125C17.8387 21.5444 15.7099 23.2787 13.2216 24.2932C13.0243 24.375 12.8223 24.4538 12.6155 24.5297C12.5785 24.543 12.5394 24.5497 12.5 24.5496V24.5496ZM4.05404 5.24358V11.7655C4.04802 14.3186 4.80442 16.8154 6.22633 18.9359C7.64823 21.0565 9.67088 22.7041 12.0351 23.6679C12.1874 23.7316 12.3423 23.7928 12.5 23.8513C12.6576 23.7926 12.8121 23.7315 12.9635 23.6682C15.328 22.7046 17.3509 21.0569 18.7731 18.9363C20.1952 16.8158 20.9518 14.3188 20.9459 11.7655V5.24527C17.7081 5.43209 14.8723 4.25439 12.5 1.73953C10.1274 4.2527 7.28782 5.4304 4.05404 5.24358V5.24358Z" fill="#5F6F7D"/>
<path d="M12.5 17.7929C11.4977 17.7929 10.5179 17.4957 9.68458 16.9389C8.85122 16.382 8.2017 15.5906 7.81815 14.6646C7.4346 13.7386 7.33424 12.7197 7.52978 11.7367C7.72531 10.7537 8.20795 9.85074 8.91666 9.14203C9.62537 8.43332 10.5283 7.95068 11.5113 7.75514C12.4943 7.55961 13.5133 7.65996 14.4392 8.04352C15.3652 8.42707 16.1567 9.07659 16.7135 9.90995C17.2703 10.7433 17.5675 11.7231 17.5675 12.7253C17.566 14.0689 17.0316 15.357 16.0816 16.307C15.1316 17.257 13.8435 17.7914 12.5 17.7929V17.7929ZM12.5 8.33345C11.6313 8.33345 10.7822 8.59103 10.06 9.07362C9.33772 9.5562 8.7748 10.2421 8.44239 11.0446C8.10998 11.8472 8.02301 12.7302 8.19247 13.5822C8.36193 14.4341 8.78022 15.2167 9.39443 15.8309C10.0087 16.4451 10.7912 16.8634 11.6432 17.0329C12.4951 17.2023 13.3782 17.1153 14.1807 16.7829C14.9832 16.4505 15.6691 15.8876 16.1517 15.1654C16.6343 14.4431 16.8919 13.594 16.8919 12.7253C16.8906 11.5609 16.4275 10.4446 15.6041 9.62119C14.7807 8.79782 13.6644 8.3347 12.5 8.33345V8.33345Z" fill="#5F6F7D"/>
<path d="M12.7449 15.3138C11.4612 15.3138 10.4166 14.153 10.4166 12.7263C10.4166 11.2997 11.4612 10.1351 12.7449 10.1351C13.0449 10.1372 13.3412 10.2007 13.6156 10.322C13.8899 10.4432 14.1364 10.6195 14.3399 10.8399C14.3717 10.8717 14.3968 10.9096 14.4137 10.9513C14.4306 10.9929 14.4391 11.0376 14.4385 11.0826C14.438 11.1275 14.4285 11.172 14.4105 11.2132C14.3926 11.2545 14.3666 11.2917 14.3341 11.3228C14.3015 11.3539 14.2631 11.3781 14.2211 11.3942C14.179 11.4102 14.1342 11.4177 14.0893 11.4161C14.0443 11.4146 14.0001 11.4041 13.9592 11.3853C13.9184 11.3664 13.8817 11.3396 13.8514 11.3064C13.7108 11.1523 13.54 11.0288 13.3497 10.9436C13.1594 10.8583 12.9535 10.8131 12.7449 10.8108C11.8328 10.8108 11.0922 11.6696 11.0922 12.725C11.0922 13.7804 11.8335 14.6368 12.7449 14.6368C12.9533 14.6342 13.1589 14.589 13.3491 14.5041C13.5394 14.4191 13.7103 14.2962 13.8514 14.1429C13.9138 14.0805 13.9982 14.045 14.0865 14.0441C14.1747 14.0431 14.2599 14.0767 14.3237 14.1377C14.3875 14.1987 14.4248 14.2823 14.4278 14.3705C14.4308 14.4587 14.3991 14.5446 14.3395 14.6098C14.1358 14.8297 13.8892 15.0056 13.615 15.1266C13.3408 15.2477 13.0447 15.3114 12.7449 15.3138V15.3138Z" fill="#5F6F7D"/>
</svg>
