<svg width="579" height="105" viewBox="0 0 579 105" fill="none" xmlns="http://www.w3.org/2000/svg">
<path opacity="0.5" d="M88.3085 77.6562C90.1206 77.6562 91.5897 76.1871 91.5897 74.375C91.5897 72.5628 90.1206 71.0937 88.3085 71.0937V77.6562ZM58.9754 93.026C58.4032 94.7454 59.3329 96.603 61.0522 97.1757C62.7716 97.748 64.6297 96.8183 65.2019 95.0989L58.9754 93.026ZM17.4901 71.0937C15.6779 71.0937 14.2089 72.5628 14.2089 74.375C14.2089 76.1871 15.6779 77.6562 17.4901 77.6562V71.0937ZM40.5966 95.0989C41.169 96.8183 43.0269 97.748 44.7462 97.1757C46.4656 96.603 47.3957 94.7454 46.823 93.026L40.5966 95.0989ZM24.3077 23.8849C23.8391 22.1343 22.0402 21.095 20.2897 21.5636C18.5391 22.0321 17.4998 23.831 17.9683 25.5816L24.3077 23.8849ZM7.12004 52.447C5.6083 53.4463 5.19285 55.482 6.19215 56.9935C7.19144 58.5055 9.22709 58.9207 10.7388 57.9215L7.12004 52.447ZM87.2112 25.582C87.6798 23.8314 86.6407 22.0325 84.8899 21.564C83.1394 21.0954 81.3404 22.1348 80.8719 23.8853L87.2112 25.582ZM94.4409 57.9219C95.9525 58.9212 97.9882 58.506 98.9874 56.994C99.9867 55.4824 99.5715 53.4467 98.0595 52.4475L94.4409 57.9219ZM70.3951 16.7835C71.876 15.739 72.2299 13.6918 71.1852 12.2109C70.1409 10.73 68.0938 10.3762 66.6129 11.4206L70.3951 16.7835ZM37.6925 10.4851C36.2345 9.4088 34.1801 9.71829 33.1039 11.1763C32.0277 12.6343 32.3371 14.6887 33.7952 15.7649L37.6925 10.4851ZM63.4042 46.7022C61.7299 47.3957 60.9346 49.315 61.628 50.9893C62.3214 52.6636 64.2407 53.459 65.9151 52.7655L63.4042 46.7022ZM49.1684 40.5055C49.1684 42.3177 50.6376 43.7867 52.4497 43.7867C54.2618 43.7867 55.7309 42.3177 55.7309 40.5055H49.1684ZM62.5126 62.5423C61.3274 61.1717 59.2554 61.0212 57.8843 62.2063C56.5136 63.3915 56.3631 65.4635 57.5483 66.8347L62.5126 62.5423ZM47.4495 66.7152C48.5691 65.2898 48.3206 63.227 46.8956 62.1079C45.4702 60.9888 43.4074 61.2368 42.2883 62.6622L47.4495 66.7152ZM38.9655 52.7577C40.6355 53.4616 42.5597 52.678 43.2635 51.0081C43.9674 49.3382 43.184 47.414 41.5141 46.7101L38.9655 52.7577ZM88.3085 71.0937H81.2424V77.6562H88.3085V71.0937ZM61.5462 85.3046L58.9754 93.026L65.2019 95.0989L67.7727 87.3775L61.5462 85.3046ZM81.2424 71.0937C78.2779 71.0937 75.7785 71.0889 73.7432 71.3212C71.6236 71.5636 69.6784 72.0917 67.9127 73.3657L71.7526 78.6874C72.2759 78.3098 72.9951 78.0119 74.4883 77.8413C76.0655 77.661 78.1266 77.6562 81.2424 77.6562V71.0937ZM67.7727 87.3775C68.7579 84.4182 69.4146 82.4617 70.0844 81.0202C70.7188 79.6552 71.2294 79.065 71.7526 78.6874L67.9127 73.3657C66.1474 74.6397 65.0326 76.3192 64.1331 78.2547C63.2695 80.1137 62.4837 82.4884 61.5462 85.3046L67.7727 87.3775ZM17.4901 77.6562H24.5561V71.0937H17.4901V77.6562ZM38.0257 87.3775L40.5966 95.0989L46.823 93.026L44.2522 85.3046L38.0257 87.3775ZM24.5561 77.6562C27.6721 77.6562 29.7331 77.661 31.3102 77.8413C32.8032 78.0119 33.5227 78.3098 34.0458 78.6874L37.8859 73.3657C36.1201 72.0917 34.175 71.5636 32.0555 71.3212C30.0201 71.0889 27.5208 71.0937 24.5561 71.0937V77.6562ZM44.2522 85.3046C43.3146 82.4884 42.5292 80.1137 41.6653 78.2547C40.766 76.3197 39.6513 74.6397 37.8859 73.3657L34.0458 78.6874C34.5692 79.065 35.0796 79.6552 35.7139 81.0202C36.3838 82.4617 37.0405 84.4182 38.0257 87.3775L44.2522 85.3046ZM17.9683 25.5816L19.7971 32.4147L26.1365 30.7181L24.3077 23.8849L17.9683 25.5816ZM13.9044 47.9622L7.12004 52.447L10.7388 57.9215L17.5232 53.4371L13.9044 47.9622ZM19.7971 32.4147C20.6035 35.4277 21.1324 37.4229 21.3667 38.9954C21.5887 40.4846 21.4876 41.2592 21.2582 41.8644L27.3945 44.1905C28.1662 42.1549 28.1722 40.1391 27.8575 38.028C27.5553 36.0002 26.9039 33.5852 26.1365 30.7181L19.7971 32.4147ZM17.5232 53.4371C19.9973 51.8017 22.0855 50.4271 23.6558 49.1102C25.2909 47.7395 26.6227 46.2267 27.3945 44.1905L21.2582 41.8644C21.0288 42.4694 20.5915 43.1156 19.4392 44.082C18.2221 45.1023 16.5046 46.2437 13.9044 47.9622L17.5232 53.4371ZM80.8719 23.8853L79.0431 30.7185L85.3825 32.4151L87.2112 25.582L80.8719 23.8853ZM87.6566 53.4375L94.4409 57.9219L98.0595 52.4475L91.2752 47.9627L87.6566 53.4375ZM79.0431 30.7185C78.2757 33.5856 77.6243 36.0006 77.322 38.0283C77.0074 40.1395 77.0135 42.1553 77.7853 44.191L83.9217 41.8648C83.692 41.2596 83.5909 40.485 83.8127 38.9958C84.0472 37.4233 84.5762 35.4282 85.3825 32.4151L79.0431 30.7185ZM91.2752 47.9627C88.6751 46.2442 86.9575 45.1027 85.7404 44.082C84.588 43.116 84.1509 42.4698 83.9217 41.8648L77.7853 44.191C78.5571 46.2271 79.8888 47.74 81.5237 49.1107C83.0939 50.4275 85.1826 51.8022 87.6566 53.4375L91.2752 47.9627ZM66.6129 11.4206L60.8361 15.4947L64.6183 20.8576L70.3951 16.7835L66.6129 11.4206ZM44.2361 15.3151L37.6925 10.4851L33.7952 15.7649L40.3386 20.595L44.2361 15.3151ZM60.8361 15.4947C58.289 17.2913 56.6007 18.4757 55.2077 19.2378C53.8886 19.9593 53.1291 20.1304 52.4851 20.1234L52.4142 26.6856C54.5912 26.7091 56.4852 26.019 58.3572 24.9952C60.1545 24.0119 62.195 22.567 64.6183 20.8576L60.8361 15.4947ZM40.3386 20.595C42.7248 22.3564 44.7335 23.8452 46.5093 24.8671C48.3582 25.9311 50.2368 26.662 52.4142 26.6856L52.4851 20.1234C51.8411 20.1165 51.0856 19.929 49.7822 19.1791C48.4059 18.387 46.7438 17.1664 44.2361 15.3151L40.3386 20.595ZM79.5979 39.9964L63.4042 46.7022L65.9151 52.7655L82.1087 46.0595L79.5979 39.9964ZM55.7309 40.5055V23.4045H49.1684V40.5055H55.7309ZM72.3148 73.8806L62.5126 62.5423L57.5483 66.8347L67.3505 78.1725L72.3148 73.8806ZM38.5465 78.053L47.4495 66.7152L42.2883 62.6622L33.3851 74L38.5465 78.053ZM41.5141 46.7101L25.6006 40.0038L23.0521 46.0512L38.9655 52.7577L41.5141 46.7101Z" fill="#1A3249"/>
<path d="M53.109 44.0121L61.1437 50.1572L65.1306 44.9444L57.0959 38.7992L53.109 44.0121ZM61.5243 51.3511L58.3682 61.5755L64.6388 63.511L67.795 53.2866L61.5243 51.3511ZM57.3287 62.3455H47.5707V68.908H57.3287V62.3455ZM46.5307 61.5755L43.375 51.3511L37.1044 53.2866L40.2603 63.511L46.5307 61.5755ZM43.7552 50.1572L51.7903 44.0121L47.8034 38.7992L39.7687 44.9444L43.7552 50.1572ZM61.1437 50.1572C61.3283 50.2981 61.4578 50.4888 61.5243 50.7036L67.795 48.7677C67.3365 47.2824 66.4247 45.934 65.1306 44.9444L61.1437 50.1572ZM61.5243 50.7036C61.5882 50.911 61.5912 51.135 61.5243 51.3511L67.795 53.2866C68.26 51.7794 68.239 50.2062 67.795 48.7677L61.5243 50.7036ZM57.0959 38.7992C55.7252 37.7508 54.0855 37.226 52.4497 37.226V43.7885C52.6837 43.7885 52.9138 43.8624 53.109 44.0121L57.0959 38.7992ZM52.4497 37.226C50.8138 37.226 49.1741 37.7508 47.8034 38.7992L51.7903 44.0121C51.9855 43.8624 52.2156 43.7885 52.4497 43.7885V37.226ZM58.3682 61.5755C58.3008 61.7947 58.1713 61.978 58.0002 62.1123L62.0602 67.2682C63.2515 66.3302 64.1685 65.0344 64.6388 63.511L58.3682 61.5755ZM58.0002 62.1123C57.8112 62.2611 57.578 62.3455 57.3287 62.3455V68.908C59.0905 68.908 60.7455 68.3034 62.0602 67.2682L58.0002 62.1123ZM47.5707 62.3455C47.3213 62.3455 47.0881 62.2611 46.8987 62.1123L42.8389 67.2682C44.1538 68.3034 45.8088 68.908 47.5707 68.908V62.3455ZM46.8987 62.1123C46.728 61.978 46.5985 61.7947 46.5307 61.5755L40.2603 63.511C40.7305 65.0344 41.6476 66.3302 42.8389 67.2682L46.8987 62.1123ZM43.375 51.3511C43.3082 51.135 43.3109 50.911 43.375 50.7036L37.1044 48.7677C36.6604 50.2062 36.6392 51.7794 37.1044 53.2866L43.375 51.3511ZM43.375 50.7036C43.4412 50.4888 43.571 50.2981 43.7552 50.1572L39.7687 44.9444C38.4744 45.9344 37.563 47.2824 37.1044 48.7677L43.375 50.7036Z" fill="#FF9D00"/>
<path d="M92.8677 52.5C92.8677 74.8541 74.7683 92.9687 52.4497 92.9687V99.5312C78.4 99.5312 99.4302 78.4709 99.4302 52.5H92.8677ZM52.4497 92.9687C30.1307 92.9687 12.0312 74.8541 12.0312 52.5H5.46875C5.46875 78.4709 26.4992 99.5312 52.4497 99.5312V92.9687ZM12.0312 52.5C12.0312 30.1462 30.1307 12.0312 52.4497 12.0312V5.46875C26.4992 5.46875 5.46875 26.5289 5.46875 52.5H12.0312ZM52.4497 12.0312C74.7683 12.0312 92.8677 30.1462 92.8677 52.5H99.4302C99.4302 26.5289 78.4 5.46875 52.4497 5.46875V12.0312Z" fill="#1F528E"/>
<path d="M124.555 79V22.125H161.312V32.9844H137.719V45.3281H157.836V54.9375H137.719V68.4922H161.859V79H124.555ZM164.711 52.125V49C164.711 39.4427 166.898 32.4375 171.273 27.9844C175.674 23.5312 181.326 21.3047 188.227 21.3047C195.128 21.3047 200.766 23.5312 205.141 27.9844C209.542 32.4375 211.742 39.4427 211.742 49V52.125C211.742 61.5521 209.542 68.5312 205.141 73.0625C200.766 77.5677 195.128 79.8203 188.227 79.8203C181.326 79.8203 175.674 77.5677 171.273 73.0625C166.898 68.5312 164.711 61.5521 164.711 52.125ZM178.969 55.9141C178.969 61.0182 179.789 64.7161 181.43 67.0078C183.07 69.2995 185.336 70.4453 188.227 70.4453C191.117 70.4453 193.383 69.2995 195.023 67.0078C196.664 64.7161 197.484 61.0182 197.484 55.9141V45.2891C197.484 40.0807 196.664 36.3828 195.023 34.1953C193.383 31.9818 191.117 30.875 188.227 30.875C185.336 30.875 183.07 31.9818 181.43 34.1953C179.789 36.3828 178.969 40.0807 178.969 45.2891V55.9141ZM203.852 88.6484L190.258 75.3281L197.523 67.3984L211.195 80.6016L203.852 88.6484ZM217.562 58.2578V22.125H231.195V60.1328C231.195 63.8568 231.833 66.5 233.109 68.0625C234.385 69.599 236.195 70.3672 238.539 70.3672C240.857 70.3672 242.641 69.599 243.891 68.0625C245.167 66.5 245.805 63.8568 245.805 60.1328V22.125H259.477V58.2578C259.477 65.6016 257.641 71.0312 253.969 74.5469C250.323 78.0625 245.232 79.8203 238.695 79.8203C232.003 79.8203 226.807 78.0625 223.109 74.5469C219.411 71.0312 217.562 65.6016 217.562 58.2578ZM266.82 79V22.125H280.727V79H266.82ZM288.07 79V22.125H311.898C317.732 22.125 322.172 23.9089 325.219 27.4766C328.292 31.0443 329.828 35.7448 329.828 41.5781C329.828 47.3854 328.318 52.0729 325.297 55.6406C322.302 59.2083 317.758 60.9922 311.664 60.9922H301.781V79H288.07ZM301.781 51.6562H308.539C311.378 51.6562 313.357 50.7188 314.477 48.8438C315.596 46.9427 316.156 44.612 316.156 41.8516C316.156 39.0911 315.596 36.7734 314.477 34.8984C313.357 33.0234 311.378 32.0859 308.539 32.0859H301.781V51.6562ZM334.555 79V22.125H348.383L363.109 53.4531C363.474 54.3125 363.812 55.224 364.125 56.1875C364.438 57.125 364.711 58.0104 364.945 58.8438H365.141C365.089 57.9583 365.062 57.0469 365.062 56.1094C365.089 55.1458 365.102 54.2214 365.102 53.3359V22.125H376.742V79H363.305L348.109 47.3594C347.771 46.5521 347.432 45.7057 347.094 44.8203C346.781 43.9349 346.521 43.0755 346.312 42.2422H346.078C346.156 43.1276 346.195 43.987 346.195 44.8203C346.195 45.6536 346.195 46.513 346.195 47.3984V79H334.555ZM383.852 79V22.125H420.609V32.9844H397.016V45.3281H417.133V54.9375H397.016V68.4922H421.156V79H383.852ZM422.68 32.9844V22.125H466.625V32.9844H451.625V79H437.758V32.9844H422.68ZM464.203 72.6719C464.203 70.6927 464.841 69.026 466.117 67.6719C467.419 66.3177 469.268 65.6406 471.664 65.6406C474.086 65.6406 475.935 66.3177 477.211 67.6719C478.513 69.026 479.164 70.6927 479.164 72.6719C479.164 74.6771 478.513 76.3568 477.211 77.7109C475.935 79.0651 474.086 79.7422 471.664 79.7422C469.268 79.7422 467.419 79.0651 466.117 77.7109C464.841 76.3307 464.203 74.651 464.203 72.6719ZM486.82 79V22.125H509.789C515.31 22.125 519.672 23.7656 522.875 27.0469C526.104 30.3281 527.719 34.651 527.719 40.0156C527.719 45.5365 526.026 50.0286 522.641 53.4922C519.255 56.9297 514.919 58.6484 509.633 58.6484H500.531V79H486.82ZM500.531 49.7031H506.703C509.359 49.7031 511.221 48.8698 512.289 47.2031C513.383 45.5365 513.93 43.401 513.93 40.7969C513.93 38.1667 513.383 36.0312 512.289 34.3906C511.221 32.724 509.359 31.8776 506.703 31.8516H500.531V49.7031ZM515.141 79L504.594 54.1562L516.781 50.8359L530.062 79H515.141ZM533.109 58.2578V22.125H546.742V60.1328C546.742 63.8568 547.38 66.5 548.656 68.0625C549.932 69.599 551.742 70.3672 554.086 70.3672C556.404 70.3672 558.188 69.599 559.438 68.0625C560.714 66.5 561.352 63.8568 561.352 60.1328V22.125H575.023V58.2578C575.023 65.6016 573.188 71.0312 569.516 74.5469C565.87 78.0625 560.779 79.8203 554.242 79.8203C547.549 79.8203 542.354 78.0625 538.656 74.5469C534.958 71.0312 533.109 65.6016 533.109 58.2578Z" fill="#1A3249"/>
</svg>
