<svg width="512" height="512" viewBox="0 0 512 512" fill="none" xmlns="http://www.w3.org/2000/svg">
<path d="M78.5024 277.333L67.2333 288.691C73.4714 294.88 83.5337 294.88 89.7715 288.691L78.5024 277.333ZM125.608 253.135C131.881 246.912 131.92 236.781 125.696 230.509C119.473 224.235 109.342 224.196 103.069 230.419L125.608 253.135ZM53.9356 230.419C47.6627 224.196 37.5322 224.235 31.3084 230.509C25.0846 236.781 25.1245 246.912 31.3973 253.135L53.9356 230.419ZM397.133 157.713C401.76 165.241 411.614 167.591 419.142 162.964C426.669 158.336 429.02 148.481 424.392 140.954L397.133 157.713ZM257.683 48C150.006 48 62.5024 134.639 62.5024 241.777H94.5024C94.5024 152.549 167.442 80 257.683 80V48ZM62.5024 241.777V277.333H94.5024V241.777H62.5024ZM89.7715 288.691L125.608 253.135L103.069 230.419L67.2333 265.975L89.7715 288.691ZM89.7715 265.975L53.9356 230.419L31.3973 253.135L67.2333 288.691L89.7715 265.975ZM424.392 140.954C390.122 85.2111 328.262 48 257.683 48V80C316.766 80 368.484 111.114 397.133 157.713L424.392 140.954Z" fill="#65737E"/>
<path d="M433.359 234.666L444.606 223.287C438.372 217.126 428.343 217.126 422.11 223.287L433.359 234.666ZM386.137 258.844C379.853 265.054 379.793 275.185 386.005 281.47C392.217 287.754 402.346 287.814 408.631 281.602L386.137 258.844ZM458.084 281.602C464.369 287.814 474.498 287.754 480.71 281.47C486.922 275.185 486.863 265.054 480.578 258.841L458.084 281.602ZM113.444 354.263C108.803 346.743 98.9451 344.409 91.4253 349.052C83.9053 353.692 81.5712 363.55 86.2121 371.07L113.444 354.263ZM253.493 464C361.489 464 449.359 377.418 449.359 270.223H417.359C417.359 359.394 344.17 432 253.493 432V464ZM449.359 270.223V234.666H417.359V270.223H449.359ZM422.11 223.287L386.137 258.844L408.631 281.602L444.606 246.046L422.11 223.287ZM422.11 246.046L458.084 281.602L480.578 258.841L444.606 223.287L422.11 246.046ZM86.2121 371.07C120.614 426.816 182.694 464 253.493 464V432C194.133 432 142.199 400.86 113.444 354.263L86.2121 371.07Z" fill="#65737E"/>
</svg>
